<svg xmlns="http://www.w3.org/2000/svg" viewBox="0 0 1200 160" preserveAspectRatio="xMidYMax meet" aria-hidden="true">
  <defs>
    <linearGradient id="hb" x1="50%" y1="0%" x2="50%" y2="100%">
      <stop offset="0%" stop-color="#22d3ee" stop-opacity="0.55"/>
      <stop offset="100%" stop-color="#051a28" stop-opacity="0"/>
    </linearGradient>
  </defs>
  <path fill="#020c14" fill-opacity="0.94" d="M0 160 V105 Q300 45 600 38 Q900 32 1200 52 V160 Z"/>
  <path fill="none" stroke="#22d3ee" stroke-opacity="0.42" stroke-width="1.4" d="M40 102 Q600 12 1160 102"/>
  <path fill="none" stroke="#67e8f9" stroke-opacity="0.28" stroke-width="0.9" d="M120 98 Q600 28 1080 98"/>
  <path fill="#051018" d="M0 160 V118 Q200 88 400 95 Q600 102 800 98 Q1000 94 1200 108 V160 Z"/>
  <rect x="380" y="72" width="14" height="88" fill="#051a28" fill-opacity="0.96"/>
  <rect x="806" y="72" width="14" height="88" fill="#051a28" fill-opacity="0.96"/>
  <path fill="url(#hb)" d="M0 160 V115 Q600 55 1200 118 V160 Z" opacity="0.65"/>
</svg>
