<svg xmlns="http://www.w3.org/2000/svg" viewBox="0 0 280 100" fill="none" aria-hidden="true">
  <g stroke="#009dd9" stroke-width="1.1" stroke-linecap="round" stroke-linejoin="round" opacity="0.2">
    <path d="M28 78 Q52 22 78 18 Q96 16 108 42 Q118 62 122 78"/>
    <path d="M68 78 Q88 28 112 24 Q132 22 148 48 Q158 68 162 78"/>
    <path d="M108 78 Q128 32 155 26 Q178 22 195 52 Q205 72 208 78"/>
    <path d="M148 78 Q172 38 198 32 Q222 28 242 58 Q252 74 255 78"/>
    <path d="M18 82 H262"/>
    <path d="M95 78 V82 M175 78 V82" opacity="0.55"/>
  </g>
</svg>
