<svg xmlns="http://www.w3.org/2000/svg" viewBox="0 0 512 512" aria-hidden="true">
  <g fill="#f8fafc" opacity="0.58">
    <circle cx="40" cy="28" r="1.15"/><circle cx="112" cy="64" r="0.75"/><circle cx="88" cy="120" r="1.05"/><circle cx="200" cy="44" r="0.65"/>
    <circle cx="256" cy="88" r="1.25"/><circle cx="312" cy="36" r="0.7"/><circle cx="368" cy="72" r="0.95"/><circle cx="420" cy="140" r="0.6"/>
    <circle cx="480" cy="52" r="1.05"/><circle cx="52" cy="200" r="0.75"/><circle cx="164" cy="176" r="1.2"/><circle cx="228" cy="220" r="0.65"/>
    <circle cx="300" cy="188" r="0.9"/><circle cx="392" cy="212" r="0.75"/><circle cx="472" cy="240" r="1.05"/><circle cx="24" cy="312" r="0.7"/>
    <circle cx="96" cy="288" r="1.05"/><circle cx="144" cy="352" r="0.6"/><circle cx="216" cy="304" r="0.85"/><circle cx="284" cy="364" r="1.15"/>
    <circle cx="356" cy="320" r="0.65"/><circle cx="428" cy="388" r="0.8"/><circle cx="492" cy="336" r="0.95"/><circle cx="68" cy="420" r="0.7"/>
    <circle cx="188" cy="452" r="1.05"/><circle cx="260" cy="408" r="0.6"/><circle cx="340" cy="460" r="0.9"/><circle cx="412" cy="432" r="0.75"/>
  </g>
  <g fill="#22d3ee" opacity="0.38">
    <circle cx="72" cy="96" r="0.95"/><circle cx="160" cy="240" r="0.75"/><circle cx="244" cy="156" r="1.05"/><circle cx="332" cy="96" r="0.7"/>
    <circle cx="448" cy="188" r="0.85"/><circle cx="128" cy="380" r="0.65"/><circle cx="388" cy="292" r="0.8"/><circle cx="468" cy="412" r="0.6"/>
  </g>
  <g fill="#fdba74" opacity="0.22">
    <circle cx="96" cy="48" r="1.35"/><circle cx="320" cy="260" r="1.05"/><circle cx="180" cy="400" r="0.95"/>
  </g>
</svg>
